<svg xmlns="http://www.w3.org/2000/svg" xmlns:xlink="http://www.w3.org/1999/xlink" 
  height="1em" 
  width="1em" 
  style="flex:none;line-height:1"
  viewBox="0 0 24 24">
  <title>Nexusflow</title>
  <defs>
    <clipPath id="clip-path">
      <rect id="Rectangle_3" data-name="Rectangle 3" width="180" height="100" fill="none"/>
    </clipPath>
  </defs>
  <g id="Group_174" data-name="Group 174" transform="translate(2 4) scale(0.45)">
    <path id="Path_1" data-name="Path 1" d="M0,0V37.817H18.9L13.232,32.53H5.356V5.408H9.61l17.806,17.1V15.025L11.733,0Z" transform="translate(0 0)" fill="#62cbf2"/>
    <path id="Path_2" data-name="Path 2" d="M49.109,0,54.78,5.287h7.877V32.409H58.4L40.6,15.307v7.485L56.279,37.817H68.012V0Z" transform="translate(-29.351 0)" fill="#307fe2"/>
    <path id="Path_3" data-name="Path 3" d="M168.2,61.824h3.456v19.83h-2.912L157.834,67.546V81.654h-3.456V61.824H157.6l10.6,13.711Z" transform="translate(-111.615 -43.994)" fill="#fcfcfc"/>
    <g id="Group_2" data-name="Group 2" transform="translate(0 0)">
      <g id="Group_1" data-name="Group 1" clip-path="url(#clip-path)">
        <path id="Path_4" data-name="Path 4" d="M229.934,90.339a4.2,4.2,0,0,0,2.833,1,4.937,4.937,0,0,0,2.21-.462,7.181,7.181,0,0,0,1.841-1.357l2.011,1.818a8.3,8.3,0,0,1-2.563,2.078,7.569,7.569,0,0,1-3.555.78,7.849,7.849,0,0,1-3.017-.577A7.328,7.328,0,0,1,227.257,92a7.517,7.517,0,0,1-1.629-2.5,8.516,8.516,0,0,1-.595-3.247,8.763,8.763,0,0,1,.538-3.088,7.785,7.785,0,0,1,1.515-2.526,7.328,7.328,0,0,1,2.309-1.717,6.759,6.759,0,0,1,2.946-.635,7,7,0,0,1,3.13.664,6.468,6.468,0,0,1,2.238,1.79,7.82,7.82,0,0,1,1.346,2.627,10.841,10.841,0,0,1,.453,3.146q0,.231-.014.462t-.042.491H228.461a4.624,4.624,0,0,0,1.473,2.872m6.176-5.181a6.082,6.082,0,0,0-.368-1.573,4.056,4.056,0,0,0-.765-1.27,3.65,3.65,0,0,0-1.147-.852,3.484,3.484,0,0,0-1.516-.318,3.424,3.424,0,0,0-2.62,1.111,5.062,5.062,0,0,0-1.261,2.9Z" transform="translate(-162.698 -56.193)" fill="#fcfcfc"/>
        <path id="Path_5" data-name="Path 5" d="M293.533,94.653h-3.739l-3.682-5.34-3.655,5.34H278.8l5.5-7.735-5.3-7.5h3.74l3.456,5.022,3.456-5.022h3.654l-5.3,7.418Z" transform="translate(-201.574 -57)" fill="#fcfcfc"/>
        <path id="Path_6" data-name="Path 6" d="M349.077,79.414h3.456v15.24h-3.456V92.263a7.418,7.418,0,0,1-1.836,1.908,4.686,4.686,0,0,1-2.825.8,4.929,4.929,0,0,1-3.926-1.588,6.271,6.271,0,0,1-1.384-4.272v-9.7h3.456v8.639a4.1,4.1,0,0,0,.828,2.75,2.924,2.924,0,0,0,2.345.965,3.151,3.151,0,0,0,2.415-.993A3.917,3.917,0,0,0,349.077,88Z" transform="translate(-245.172 -57)" fill="#fcfcfc"/>
        <path id="Path_7" data-name="Path 7" d="M405.463,91.6a4.111,4.111,0,0,1-1.176,1.487,5.239,5.239,0,0,1-1.771.895,7.623,7.623,0,0,1-2.181.3,9.907,9.907,0,0,1-3.272-.577A10.425,10.425,0,0,1,393.99,92l1.53-2.367a9.9,9.9,0,0,0,2.479,1.4,6.841,6.841,0,0,0,2.422.476,2.85,2.85,0,0,0,1.714-.447,1.411,1.411,0,0,0,.609-1.2v-.058a1.125,1.125,0,0,0-.269-.75,2.43,2.43,0,0,0-.737-.563,6.364,6.364,0,0,0-1.076-.433l-1.26-.39q-.822-.26-1.657-.577a5.949,5.949,0,0,1-1.5-.822,4.131,4.131,0,0,1-1.091-1.241,3.618,3.618,0,0,1-.425-1.833V83.14a4.456,4.456,0,0,1,.411-1.934,4.309,4.309,0,0,1,1.133-1.472,5.038,5.038,0,0,1,1.7-.923,6.705,6.705,0,0,1,2.082-.318,9.376,9.376,0,0,1,2.861.462,10.191,10.191,0,0,1,2.635,1.27l-1.36,2.482a11.369,11.369,0,0,0-2.182-1.054,6.169,6.169,0,0,0-2.039-.389,2.449,2.449,0,0,0-1.544.433,1.338,1.338,0,0,0-.553,1.1v.058a1,1,0,0,0,.284.707,2.784,2.784,0,0,0,.75.548,8.314,8.314,0,0,0,1.077.462q.609.217,1.261.419.821.26,1.643.606a6.879,6.879,0,0,1,1.487.852,4.212,4.212,0,0,1,1.091,1.227,3.418,3.418,0,0,1,.425,1.761v.058a4.868,4.868,0,0,1-.425,2.107" transform="translate(-284.854 -56.339)" fill="#fcfcfc"/>
        <path id="Path_8" data-name="Path 8" d="M451.593,67.261v2.886h-3.909V81.821h-3.456V70.148h-1.9V67.232h1.9v-1.1a5.2,5.2,0,0,1,1.2-3.767,4.567,4.567,0,0,1,3.418-1.227,9.094,9.094,0,0,1,1.558.115,10.436,10.436,0,0,1,1.218.289V64.49a8.845,8.845,0,0,0-.977-.274,4.916,4.916,0,0,0-1.034-.1q-1.983,0-1.983,2.309v.837Z" transform="translate(-319.803 -43.885)" fill="#fcfcfc"/>
        <rect id="Rectangle_2" data-name="Rectangle 2" width="3.456" height="20.276" transform="translate(134.555 17.378)" fill="#fcfcfc"/>
        <path id="Path_9" data-name="Path 9" d="M522.47,89.315A8.021,8.021,0,0,1,520.8,91.84a7.88,7.88,0,0,1-2.536,1.717,8.366,8.366,0,0,1-6.359.014,7.72,7.72,0,0,1-2.522-1.7,7.876,7.876,0,0,1-2.252-5.585,7.908,7.908,0,0,1,7.988-8,8.063,8.063,0,0,1,3.187.62,7.732,7.732,0,0,1,2.521,1.7,7.826,7.826,0,0,1,1.657,2.525,8.025,8.025,0,0,1,.6,3.089,7.859,7.859,0,0,1-.609,3.088m-3.185-4.935a4.981,4.981,0,0,0-.943-1.573,4.428,4.428,0,0,0-1.436-1.068,4.556,4.556,0,0,0-3.688,0,4.356,4.356,0,0,0-1.422,1.053,4.577,4.577,0,0,0-.9,1.544,5.66,5.66,0,0,0-.31,1.89,5.46,5.46,0,0,0,.338,1.92,4.762,4.762,0,0,0,.943,1.573,4.514,4.514,0,0,0,1.436,1.054,4.22,4.22,0,0,0,1.816.39,4.292,4.292,0,0,0,3.294-1.443,4.587,4.587,0,0,0,.9-1.544,5.663,5.663,0,0,0,.309-1.89,5.356,5.356,0,0,0-.338-1.905" transform="translate(-366.654 -56.193)" fill="#fcfcfc"/>
        <path id="Path_10" data-name="Path 10" d="M584.4,89.715l3.059-10.448h3.428l-4.9,15.355h-3.059L579.581,84.2l-3.371,10.42H573.15l-4.844-15.355h3.513l3,10.448,3.315-10.506h2.917Z" transform="translate(-410.884 -56.853)" fill="#fcfcfc"/>
      </g>
    </g>
  </g>
</svg>
